<svg width="76" height="12" viewBox="0 0 76 12" fill="none" xmlns="http://www.w3.org/2000/svg">
<path d="M12.963 4.32815L9.08986 3.79392L7.35362 0.321436C7.35362 0.0543213 7.0865 0.0543213 6.95295 0.0543213L6.81939 0.187879L5.08315 3.66037L1.20999 4.1946C1.07643 4.1946 0.942871 4.32815 0.942871 4.59527C0.942871 4.72883 0.942872 4.72882 1.07643 4.86238L3.88113 7.53353L3.21335 11.4067C3.21335 11.5402 3.3469 11.8074 3.48046 11.8074C3.61402 11.8074 3.61402 11.8074 3.74757 11.8074L7.22006 10.0711L10.6926 11.8074C10.8261 11.9409 11.0932 11.8074 11.0932 11.6738V11.5402L10.4254 7.66708L13.2301 4.99594C13.3637 4.86238 13.3637 4.72883 13.2301 4.59527C13.0966 4.32815 12.963 4.32815 12.963 4.32815Z" fill="#FFC014"/>
<path d="M28.5892 4.32797L24.7161 3.79374L22.9798 0.187695C22.8463 0.0541382 22.7127 0.0541382 22.5792 0.0541382L22.4456 0.187695L20.7094 3.66018L16.8362 4.19441C16.7026 4.19441 16.5691 4.32797 16.5691 4.59508C16.5691 4.72864 16.5691 4.72864 16.7026 4.8622L19.5074 7.53334L18.8396 11.4065C18.8396 11.5401 18.9731 11.8072 19.1067 11.8072C19.2402 11.8072 19.2402 11.8072 19.3738 11.8072L22.8463 10.0709L26.3188 11.8072C26.4523 11.9407 26.7194 11.8072 26.7194 11.6736V11.5401L26.0517 7.6669L28.8564 4.99576C28.9899 4.8622 28.9899 4.72864 28.8564 4.59508C28.7228 4.32797 28.5892 4.32797 28.5892 4.32797Z" fill="#FFC014"/>
<path d="M44.082 4.32797L40.3424 3.66018L38.6062 0.187695C38.4726 0.0541382 38.3391 0.0541382 38.072 0.0541382L37.9384 0.187695L36.2022 3.66018L32.4625 4.32797C32.329 4.32797 32.1954 4.46153 32.1954 4.72864C32.1954 4.8622 32.1954 4.8622 32.329 4.99576L35.1337 7.6669L34.3324 11.4065C34.3324 11.5401 34.4659 11.8072 34.5995 11.8072C34.733 11.8072 34.733 11.8072 34.8666 11.8072L38.3391 10.0709L41.678 11.6736C41.8116 11.8072 42.0787 11.6736 42.0787 11.5401V11.4065L41.5444 7.53334L44.3491 4.8622C44.4827 4.72864 44.4827 4.59508 44.3491 4.46153C44.2156 4.32797 44.2156 4.32797 44.082 4.32797Z" fill="#FFC014"/>
<path d="M59.708 4.32797L55.8349 3.79374L54.0986 0.321253C54.0986 0.0541382 53.8315 0.0541382 53.6979 0.0541382L53.5644 0.187695L51.8281 3.66018L47.955 4.19441C47.8214 4.19441 47.6879 4.32797 47.6879 4.59508C47.6879 4.72864 47.6879 4.72864 47.8214 4.8622L50.6261 7.53334L49.9583 11.4065C49.9583 11.5401 50.0919 11.8072 50.2255 11.8072C50.359 11.8072 50.359 11.8072 50.4926 11.8072L53.9651 10.0709L57.4375 11.8072C57.5711 11.9407 57.8382 11.8072 57.8382 11.6736V11.5401L57.1704 7.6669L59.9751 4.99576C60.1087 4.8622 60.1087 4.72864 59.9751 4.59508C59.8416 4.32797 59.8416 4.32797 59.708 4.32797Z" fill="#FFC014"/>
<path opacity="0.25" d="M75.3344 4.32797L71.4612 3.79374L69.725 0.187695C69.725 0.0541382 69.4578 0.0541382 69.3243 0.0541382L69.1907 0.187695L67.4545 3.66018L63.5813 4.19441C63.4478 4.19441 63.3142 4.32797 63.3142 4.59508C63.3142 4.72864 63.3142 4.72864 63.4478 4.8622L66.2525 7.53334L65.5847 11.4065C65.5847 11.5401 65.7182 11.8072 65.8518 11.8072C65.9854 11.8072 65.9854 11.8072 66.1189 11.8072L69.5914 10.0709L73.0639 11.8072C73.1974 11.9407 73.4646 11.8072 73.4646 11.6736V11.5401L72.7968 7.6669L75.6015 4.99576C75.735 4.8622 75.735 4.72864 75.6015 4.59508C75.4679 4.32797 75.3344 4.32797 75.3344 4.32797Z" fill="#AEAEAE"/>
</svg>
