<svg width="76" height="12" viewBox="0 0 76 12" fill="none" xmlns="http://www.w3.org/2000/svg">
<path d="M12.3861 4.32815L8.51296 3.79392L6.77671 0.321436C6.77671 0.0543213 6.5096 0.0543213 6.37604 0.0543213L6.24249 0.187879L4.50624 3.66037L0.633082 4.1946C0.499525 4.1946 0.365967 4.32815 0.365967 4.59527C0.365967 4.72883 0.365967 4.72882 0.499525 4.86238L3.30423 7.53353L2.63644 11.4067C2.63644 11.5402 2.77 11.8074 2.90355 11.8074C3.03711 11.8074 3.03711 11.8074 3.17067 11.8074L6.64316 10.0711L10.1156 11.8074C10.2492 11.9409 10.5163 11.8074 10.5163 11.6738V11.5402L9.84853 7.66708L12.6532 4.99594C12.7868 4.86238 12.7868 4.72883 12.6532 4.59527C12.5197 4.32815 12.3861 4.32815 12.3861 4.32815Z" fill="#FFC014"/>
<path d="M28.0123 4.32797L24.1392 3.79374L22.4029 0.187695C22.2694 0.0541382 22.1358 0.0541382 22.0023 0.0541382L21.8687 0.187695L20.1325 3.66018L16.2593 4.19441C16.1257 4.19441 15.9922 4.32797 15.9922 4.59508C15.9922 4.72864 15.9922 4.72864 16.1257 4.8622L18.9304 7.53334L18.2627 11.4065C18.2627 11.5401 18.3962 11.8072 18.5298 11.8072C18.6633 11.8072 18.6633 11.8072 18.7969 11.8072L22.2694 10.0709L25.7419 11.8072C25.8754 11.9407 26.1425 11.8072 26.1425 11.6736V11.5401L25.4748 7.6669L28.2795 4.99576C28.413 4.8622 28.413 4.72864 28.2795 4.59508C28.1459 4.32797 28.0123 4.32797 28.0123 4.32797Z" fill="#FFC014"/>
<path d="M43.5052 4.32797L39.7656 3.66018L38.0294 0.187695C37.8958 0.0541382 37.7623 0.0541382 37.4952 0.0541382L37.3616 0.187695L35.6254 3.66018L31.8858 4.32797C31.7522 4.32797 31.6187 4.46153 31.6187 4.72864C31.6187 4.8622 31.6187 4.8622 31.7522 4.99576L34.5569 7.6669L33.7556 11.4065C33.7556 11.5401 33.8891 11.8072 34.0227 11.8072C34.1562 11.8072 34.1562 11.8072 34.2898 11.8072L37.7623 10.0709L41.1012 11.6736C41.2348 11.8072 41.5019 11.6736 41.5019 11.5401V11.4065L40.9677 7.53334L43.7724 4.8622C43.9059 4.72864 43.9059 4.59508 43.7724 4.46153C43.6388 4.32797 43.6388 4.32797 43.5052 4.32797Z" fill="#FFC014"/>
<path d="M59.1312 4.32797L55.2581 3.79374L53.5218 0.321253C53.5218 0.0541382 53.2547 0.0541382 53.1212 0.0541382L52.9876 0.187695L51.2514 3.66018L47.3782 4.19441C47.2446 4.19441 47.1111 4.32797 47.1111 4.59508C47.1111 4.72864 47.1111 4.72864 47.2446 4.8622L50.0493 7.53334L49.3816 11.4065C49.3816 11.5401 49.5151 11.8072 49.6487 11.8072C49.7822 11.8072 49.7822 11.8072 49.9158 11.8072L53.3883 10.0709L56.8608 11.8072C56.9943 11.9407 57.2614 11.8072 57.2614 11.6736V11.5401L56.5936 7.6669L59.3984 4.99576C59.5319 4.8622 59.5319 4.72864 59.3984 4.59508C59.2648 4.32797 59.2648 4.32797 59.1312 4.32797Z" fill="#FFC014"/>
<path opacity="0.25" d="M74.7576 4.32797L70.8844 3.79374L69.1482 0.187695C69.1482 0.0541382 68.8811 0.0541382 68.7475 0.0541382L68.6139 0.187695L66.8777 3.66018L63.0045 4.19441C62.871 4.19441 62.7374 4.32797 62.7374 4.59508C62.7374 4.72864 62.7374 4.72864 62.871 4.8622L65.6757 7.53334L65.0079 11.4065C65.0079 11.5401 65.1415 11.8072 65.275 11.8072C65.4086 11.8072 65.4086 11.8072 65.5421 11.8072L69.0146 10.0709L72.4871 11.8072C72.6207 11.9407 72.8878 11.8072 72.8878 11.6736V11.5401L72.22 7.6669L75.0247 4.99576C75.1583 4.8622 75.1583 4.72864 75.0247 4.59508C74.8911 4.32797 74.7576 4.32797 74.7576 4.32797Z" fill="#AEAEAE"/>
</svg>
