<svg width="21" height="21" viewBox="0 0 21 21" fill="none" xmlns="http://www.w3.org/2000/svg">
<path d="M10.9564 2.05237C6.34869 2.05237 2.61743 5.79197 2.61743 10.3997C2.61743 15.0074 6.34869 18.747 10.9564 18.747C15.5725 18.747 19.3121 15.0074 19.3121 10.3997C19.3121 5.79197 15.5725 2.05237 10.9564 2.05237ZM10.9648 17.0776C7.27524 17.0776 4.2869 14.0892 4.2869 10.3997C4.2869 6.71018 7.27524 3.72183 10.9648 3.72183C14.6543 3.72183 17.6426 6.71018 17.6426 10.3997C17.6426 14.0892 14.6543 17.0776 10.9648 17.0776ZM11.3821 6.22603H10.13V11.2344L14.5124 13.8638L15.1384 12.8371L11.3821 10.6084V6.22603Z" fill="#ED6B4F"/>
</svg>
