<svg width="21" height="21" viewBox="0 0 21 21" fill="none" xmlns="http://www.w3.org/2000/svg">
<path d="M10.9281 2.05237C6.32037 2.05237 2.58911 5.79197 2.58911 10.3997C2.58911 15.0074 6.32037 18.747 10.9281 18.747C15.5442 18.747 19.2838 15.0074 19.2838 10.3997C19.2838 5.79197 15.5442 2.05237 10.9281 2.05237ZM10.9364 17.0776C7.24692 17.0776 4.25858 14.0892 4.25858 10.3997C4.25858 6.71018 7.24692 3.72183 10.9364 3.72183C14.626 3.72183 17.6143 6.71018 17.6143 10.3997C17.6143 14.0892 14.626 17.0776 10.9364 17.0776ZM11.3538 6.22603H10.1017V11.2344L14.4841 13.8638L15.1101 12.8371L11.3538 10.6084V6.22603Z" fill="#FF4A60"/>
</svg>
