<svg width="21" height="21" viewBox="0 0 21 21" fill="none" xmlns="http://www.w3.org/2000/svg">
<path d="M10.5049 2.05237C5.89715 2.05237 2.16589 5.79197 2.16589 10.3997C2.16589 15.0074 5.89715 18.747 10.5049 18.747C15.1209 18.747 18.8606 15.0074 18.8606 10.3997C18.8606 5.79197 15.1209 2.05237 10.5049 2.05237ZM10.5132 17.0776C6.8237 17.0776 3.83536 14.0892 3.83536 10.3997C3.83536 6.71018 6.8237 3.72183 10.5132 3.72183C14.2027 3.72183 17.1911 6.71018 17.1911 10.3997C17.1911 14.0892 14.2027 17.0776 10.5132 17.0776ZM10.9306 6.22603H9.67849V11.2344L14.0608 13.8638L14.6869 12.8371L10.9306 10.6084V6.22603Z" fill="#FF4A60"/>
</svg>
